#!OML:ASF H:\BabyWalks\Project 1\Capture day 1\Session 1\baby.ASF
:FULLY-SPECIFIED
:DEGREES
528
root 12.5289 17.3076 8.58717 -169.083 53.6438 -171.217
lowerback 19.8298 0.661878 2.98149
upperback 4.77627 2.26701 3.63854
thorax -5.96294 1.30564 1.62943
lowerneck -2.98584 -1.0232 10.6911
upperneck -0.478968 -1.66411 -8.94775
head 0.180906 -0.890321 -4.44106
rclavicle -2.50469e-014 -3.97569e-014
rhumerus -46.2882 5.85701 -77.6963
rradius 43.5859
rwrist 6.85773
rhand -16.3614 -18.8703
rfingers 7.12502
rthumb 9.85147 -48.6198
lclavicle -2.50469e-014 -3.97569e-014
lhumerus -55.783 -9.31159 88.7292
lradius 48.7515
lwrist -8.37702
lhand 4.20614 9.13855
lfingers 7.12502
lthumb 29.6125 36.7953
rfemur -11.1977 1.15457 29.2418
rtibia 34.0125
rfoot -22.7994 0.0305849
rtoes 1.92088
lfemur -29.5355 -0.128751 -8.24199
ltibia 64.3228
lfoot -21.4555 -15.6671
ltoes -15.0903
529
root 12.64 17.344 8.49592 -168.882 53.7527 -171.251
lowerback 19.7383 0.794371 3.09271
upperback 4.72929 2.44425 3.55775
thorax -5.95895 1.38597 1.4377
lowerneck -3.07591 -1.06183 10.7061
upperneck -0.405556 -1.72191 -8.95827
head 0.211149 -0.920822 -4.4481
rclavicle -4.37326e-015 -1.59028e-014
rhumerus -46.299 6.13795 -78.0418
rradius 44.7998
rwrist 5.3231
rhand -16.8865 -18.5886
rfingers 7.12502
rthumb 9.34487 -48.3614
lclavicle -4.37326e-015 -1.59028e-014
lhumerus -56.8961 -9.64888 89.1338
lradius 47.9668
lwrist -8.18395
lhand 5.01939 9.58727
lfingers 7.12502
lthumb 30.3885 37.1035
rfemur -10.5032 1.31313 29.1424
rtibia 33.1583
rfoot -22.5586 0.138214
rtoes 1.56809
lfemur -30.2718 -0.496253 -8.56167
ltibia 62.7332
lfoot -21.8924 -14.5695
ltoes -14.8583
530
root 12.7521 17.3817 8.40346 -168.649 53.8497 -171.259
lowerback 19.6202 0.9267 3.20672
upperback 4.68118 2.6199 3.47708
thorax -5.94064 1.46547 1.24611
lowerneck -3.17976 -1.10187 10.7218
upperneck -0.309829 -1.78207 -8.97236
head 0.249903 -0.952724 -4.45667
rclavicle 7.43455e-014 -2.70347e-014
rhumerus -46.3609 6.48245 -78.4115
rradius 46.0794
rwrist 3.62893
rhand -17.2991 -18.2586
rfingers 7.12502
rthumb 8.94674 -48.0489
lclavicle 7.43455e-014 -2.70347e-014
lhumerus -58.0063 -9.96169 89.4889
lradius 47.3501
lwrist -7.90653
lhand 5.72547 10.014
lfingers 7.12502
lthumb 31.0617 37.4037
rfemur -9.7921 1.48482 29.0589
rtibia 32.2427
rfoot -22.2527 0.229738
rtoes 1.1661
lfemur -30.972 -0.84366 -8.84765
ltibia 61.0217
lfoot -22.2299 -13.5022
ltoes -14.5025
531
root 12.8655 17.4204 8.30992 -168.395 53.9404 -171.243
lowerback 19.4868 1.05753 3.31436
upperback 4.63452 2.79148 3.39902
thorax -5.91163 1.54328 1.06308
lowerneck -3.29677 -1.13962 10.7296
upperneck -0.190705 -1.83923 -8.98278
head 0.298056 -0.983289 -4.46311
rclavicle -5.40694e-014 -7.95139e-016
rhumerus -46.4635 6.89014 -78.7987
rradius 47.4051
rwrist 1.84613
rhand -17.6339 -17.9109
rfingers 7.12502
rthumb 8.62369 -47.7148
lclavicle -5.40694e-014 -7.95139e-016
lhumerus -59.107 -10.2257 89.7797
lradius 46.8924
lwrist -7.58572
lhand 6.35063 10.3944
lfingers 7.12502
lthumb 31.6574 37.6684
rfemur -9.04924 1.66657 28.9915
rtibia 31.2615
rfoot -21.8832 0.302693
rtoes 0.697069
lfemur -31.6223 -1.16591 -9.09572
ltibia 59.2062
lfoot -22.4684 -12.5158
ltoes -13.9555
532
root 12.98 17.4598 8.21497 -168.142 54.0306 -171.229
lowerback 19.331 1.18796 3.39849
upperback 4.59327 2.95628 3.32131
thorax -5.86479 1.61844 0.896904
lowerneck -3.42206 -1.17277 10.7328
upperneck -0.0578002 -1.89032 -8.99057
head 0.352271 -1.01092 -4.4682
rclavicle 3.10104e-014 -7.15625e-015
rhumerus -46.596 7.34936 -79.1925
rradius 48.7617
rwrist 0.0572781
rhand -17.9056 -17.5601
rfingers 7.12502
rthumb 8.36143 -47.3746
lclavicle 3.10104e-014 -7.15625e-015
lhumerus -60.1897 -10.4335 90.0028
lradius 46.5905
lwrist -7.24194
lhand 6.89295 10.7244
lfingers 7.12502
lthumb 32.1738 37.8954
rfemur -8.27455 1.84047 28.9204
rtibia 30.2145
rfoot -21.4476 0.376256
rtoes 0.200821
lfemur -32.2204 -1.4595 -9.32784
ltibia 57.3044
lfoot -22.6239 -11.6172
ltoes -13.3029
533
root 13.0972 17.4981 8.12024 -167.82 54.139 -171.102
lowerback 19.183 1.32806 3.48823
upperback 4.55861 3.13784 3.26313
thorax -5.81457 1.7026 0.74525
lowerneck -3.55185 -1.20254 10.7263
upperneck 0.0920441 -1.93654 -8.98019
head 0.412932 -1.03605 -4.46633
rclavicle 7.95139e-016 4.6118e-014
rhumerus -46.7635 7.82218 -79.5828
rradius 50.1357
rwrist -1.64476
rhand -18.1134 -17.2162
rfingers 7.12502
rthumb 8.16088 -47.0386
lclavicle 7.95139e-016 4.6118e-014
lhumerus -61.2632 -10.6111 90.1612
lradius 46.4369
lwrist -6.87953
lhand 7.365 10.9945
lfingers 7.12502
lthumb 32.6231 38.0735
rfemur -7.44244 2.06618 28.9292
rtibia 29.0998
rfoot -20.9523 0.411623
rtoes -0.297561
lfemur -32.7454 -1.67636 -9.46501
ltibia 55.3477
lfoot -22.7204 -10.8363
ltoes -12.588
534
root 13.2165 17.5354 8.02525 -167.463 54.2626 -170.902
lowerback 19.0445 1.47372 3.57054
upperback 4.52852 3.32726 3.2163
thorax -5.76445 1.79126 0.608741
lowerneck -3.67855 -1.22693 10.7095
upperneck 0.250474 -1.97491 -8.94642
head 0.476722 -1.05699 -4.45565
rclavicle -9.58142e-014 -7.95139e-016
rhumerus -46.9584 8.29932 -79.9639
rradius 51.5102
rwrist -3.19649
rhand -18.2757 -16.8825
rfingers 7.12502
rthumb 8.00425 -46.7109
lclavicle -9.58142e-014 -7.95139e-016
lhumerus -62.3258 -10.7629 90.2597
lradius 46.4244
lwrist -6.48923
lhand 7.77474 11.1956
lfingers 7.12502
lthumb 33.0128 38.1931
rfemur -6.55302 2.31396 28.9873
rtibia 27.921
rfoot -20.4043 0.428235
rtoes -0.8033
lfemur -33.1995 -1.82948 -9.54058
ltibia 53.3621
lfoot -22.7737 -10.1568
ltoes -11.9199
